<?xml version="1.0" encoding="UTF-8"?>
<svg id="Layer_2" data-name="Layer 2" xmlns="http://www.w3.org/2000/svg" viewBox="0 0 100 100">
  <defs>
    <style>
      .cls-1 {
        fill: #e6e6e6;
      }

      .cls-2 {
        fill: #fff;
      }

      .cls-3 {
        fill: #f44a3d;
      }

      .cls-4 {
        fill: #666;
      }

      .cls-5 {
        fill: #c53d33;
      }

      .cls-6 {
        fill: #f2f2f2;
        opacity: .8;
      }
    </style>
  </defs>
  <g id="Layer_1-2" data-name="Layer 1">
    <g>
      <circle class="cls-4" cx="50" cy="50" r="50"/>
      <g>
        <g>
          <path class="cls-5" d="m82.07,27.45h.46v44.89h-.46c-2.64,0-4.79-2.14-4.79-4.79v-35.32c0-2.64,2.14-4.79,4.79-4.79Z" transform="translate(159.82 99.79) rotate(180)"/>
          <path class="cls-3" d="m77.29,72.06c2.09-.69,3.6-2.64,3.6-4.96v-34.4c0-2.32-1.52-4.26-3.6-4.96v44.32Z"/>
        </g>
        <g>
          <path class="cls-5" d="m22.25,27.45h.46v44.89h-.46c-2.64,0-4.79-2.14-4.79-4.79v-35.32c0-2.64,2.14-4.79,4.79-4.79Z"/>
          <path class="cls-3" d="m22.71,27.74c-2.09.69-3.6,2.64-3.6,4.96v34.4c0,2.32,1.52,4.26,3.6,4.96V27.74Z"/>
        </g>
        <path class="cls-2" d="m71.92,77.39l-21.92-5.04V27.45s21.96-4.85,21.96-4.85c2.74-.6,5.33,1.48,5.33,4.28v46.23c0,2.82-2.62,4.91-5.37,4.27Z"/>
        <path class="cls-6" d="m50,27.45l-21.96-4.85c-2.74-.6-5.33,1.48-5.33,4.28v46.23c0,2.82,2.62,4.91,5.37,4.27l21.92-5.04,21.92,5.04c2.75.63,5.37-1.45,5.37-4.27v-23.11l-27.29-22.55Z"/>
        <g>
          <polygon class="cls-1" points="41.07 33.24 47.85 34.22 47.85 32.13 41.07 31.02 41.07 33.24"/>
          <polygon class="cls-1" points="41.07 37.64 47.85 38.46 47.85 36.29 41.07 35.47 41.07 37.64"/>
          <polygon class="cls-1" points="41.07 42.15 47.85 42.61 47.85 40.44 41.07 39.86 41.07 42.15"/>
          <polygon class="cls-1" points="52.05 32.21 52.05 34.29 72.29 31.23 72.29 28.72 52.05 32.21"/>
          <polygon class="cls-1" points="52.05 38.46 72.29 36.19 72.29 33.68 52.05 36.38 52.05 38.46"/>
          <polygon class="cls-1" points="52.05 42.57 72.29 41.2 72.29 38.69 52.05 40.49 52.05 42.57"/>
          <polygon class="cls-1" points="52.05 46.72 72.29 46.16 72.29 43.65 52.05 44.64 52.05 46.72"/>
          <polygon class="cls-1" points="52.05 50.88 72.29 51.07 72.29 48.56 52.05 48.8 52.05 50.88"/>
          <polygon class="cls-1" points="52.05 55.11 72.29 56.05 72.29 53.54 52.05 53.03 52.05 55.11"/>
          <polygon class="cls-1" points="52.05 59.23 72.29 61.08 72.29 58.57 52.05 57.15 52.05 59.23"/>
          <polygon class="cls-1" points="52.05 63.39 72.29 66.02 72.29 63.51 52.05 61.31 52.05 63.39"/>
          <polygon class="cls-1" points="52.05 67.69 58.76 68.56 58.76 66.34 52.05 65.61 52.05 67.69"/>
          <polygon class="cls-1" points="27.61 46.15 47.85 46.75 47.85 44.56 27.61 43.71 27.61 46.15"/>
          <polygon class="cls-1" points="27.61 51.09 47.85 50.89 47.85 48.7 27.61 48.64 27.61 51.09"/>
          <polygon class="cls-1" points="27.61 56 47.85 55.23 47.85 53.04 27.61 53.56 27.61 56"/>
          <polygon class="cls-1" points="27.61 61.03 47.85 59.41 47.85 57.22 27.61 58.58 27.61 61.03"/>
          <polygon class="cls-1" points="27.61 65.91 47.85 63.44 47.85 61.25 27.61 63.47 27.61 65.91"/>
          <polygon class="cls-1" points="27.61 70.94 47.85 67.68 47.85 65.49 27.61 68.5 27.61 70.94"/>
          <polygon class="cls-1" points="38.63 30.65 27.61 28.67 27.61 41.24 38.63 41.91 38.63 30.65"/>
        </g>
      </g>
    </g>
  </g>
</svg>