<?xml version="1.0" encoding="utf-8"?>
<!-- Generator: Adobe Illustrator 25.3.1, SVG Export Plug-In . SVG Version: 6.00 Build 0)  -->
<svg version="1.1" id="Layer_1" xmlns="http://www.w3.org/2000/svg" xmlns:xlink="http://www.w3.org/1999/xlink" x="0px" y="0px"
	 viewBox="0 0 64 64" style="enable-background:new 0 0 64 64;" xml:space="preserve">
<style type="text/css">
	.st0{fill-rule:evenodd;clip-rule:evenodd;fill:#1A1A1A;}
	.st1{fill:#F2F2F2;}
</style>
<path class="st0" d="M52.6,60.8c-0.8,0.4-1.7,0.8-2.5,1.1c-4.6,1.7-9.4,1.9-14.3,2.1c-0.4,0-0.8,0-1.2,0h-0.1c-0.8,0-1.6,0-2.4,0
	C27,63.9,22,63.9,16.9,62.8C9,61.2,2.8,54.9,1.4,46.9C0.4,42,0,37.1,0,32.1c0-5,0.5-9.9,1.4-14.8C3,8.6,8.6,3.2,17.2,1.3
	c7.7-1.7,15.4-1.4,23.2-0.9c4.4,0.2,8.7,1.1,12.7,3.3c5.2,2.9,8.2,7.4,9.6,13.1c1,4.6,1.3,9.2,1.3,13.9c0,3-0.1,6-0.2,8.9
	c-0.1,3.5-0.7,7-1.9,10.4C60.3,54.7,57,58.6,52.6,60.8"/>
<g>
	<path class="st1" d="M9.1,37.9c0,0-0.1-0.1-0.1-0.1V26.2c0-0.1,0-0.1,0.1-0.1c0,0,0.1-0.1,0.1-0.1h2c0.1,0,0.1,0,0.1,0.1
		c0,0,0.1,0.1,0.1,0.1v9.6c0,0.1,0,0.1,0.1,0.1h5.6c0.1,0,0.1,0,0.1,0.1c0,0,0.1,0.1,0.1,0.1v1.7c0,0.1,0,0.1-0.1,0.1
		c0,0-0.1,0.1-0.1,0.1H9.2C9.1,38,9.1,38,9.1,37.9z"/>
	<path class="st1" d="M26.5,37.8L26,36.1c0,0-0.1-0.1-0.1-0.1h-4.2c0,0-0.1,0-0.1,0.1l-0.5,1.7c0,0.1-0.1,0.2-0.2,0.2h-2.2
		c-0.1,0-0.1,0-0.2-0.1c0,0,0-0.1,0-0.2l3.7-11.6c0-0.1,0.1-0.2,0.2-0.2h2.7c0.1,0,0.2,0.1,0.2,0.2l3.7,11.6c0,0,0,0.1,0,0.1
		c0,0.1-0.1,0.2-0.2,0.2h-2.2C26.6,38,26.5,37.9,26.5,37.8z M22.3,34.2h3c0.1,0,0.1,0,0.1-0.1L23.8,29c0,0,0-0.1-0.1-0.1
		c0,0,0,0-0.1,0.1l-1.5,5.1C22.2,34.2,22.2,34.2,22.3,34.2z"/>
	<path class="st1" d="M37.7,31.8c1.1,0.6,1.6,1.5,1.6,2.8c0,1.1-0.4,1.9-1.1,2.5c-0.8,0.6-1.7,0.8-3,0.8h-4.4c-0.1,0-0.1,0-0.1-0.1
		c0,0-0.1-0.1-0.1-0.1V26.2c0-0.1,0-0.1,0.1-0.1c0,0,0.1-0.1,0.1-0.1h4.3c2.7,0,4.1,1.1,4.1,3.3c0,1.1-0.5,2-1.5,2.5
		C37.6,31.8,37.6,31.8,37.7,31.8z M33,28.2v2.7c0,0.1,0,0.1,0.1,0.1h2c0.5,0,1-0.1,1.3-0.4c0.3-0.3,0.4-0.6,0.4-1
		c0-0.4-0.1-0.8-0.4-1.1c-0.3-0.3-0.7-0.4-1.3-0.4L33,28.2C33,28.1,33,28.1,33,28.2z M36.5,35.5c0.3-0.3,0.4-0.6,0.4-1.1
		c0-0.5-0.1-0.8-0.4-1.1c-0.3-0.3-0.7-0.4-1.3-0.4h-2.1c-0.1,0-0.1,0-0.1,0.1v2.8c0,0.1,0,0.1,0.1,0.1h2.1
		C35.8,35.9,36.2,35.8,36.5,35.5z"/>
	<path class="st1" d="M42.3,33c-0.3-0.3-0.4-0.6-0.4-1c0-0.4,0.1-0.7,0.4-1c0.3-0.3,0.6-0.4,1-0.4s0.7,0.1,1,0.4
		c0.3,0.3,0.4,0.6,0.4,1c0,0.4-0.1,0.7-0.4,1c-0.3,0.3-0.6,0.4-1,0.4C42.9,33.4,42.6,33.2,42.3,33z"/>
	<path class="st1" d="M45.2,37.9c0,0,0-0.1,0-0.2l3.3-5.7c0,0,0-0.1,0-0.1l-3.3-5.7l0-0.1c0-0.1,0.1-0.1,0.2-0.1h2.2
		c0.1,0,0.2,0,0.3,0.1l2.2,3.9c0,0.1,0.1,0.1,0.1,0l2.2-3.9c0.1-0.1,0.1-0.1,0.3-0.1h2.2c0.1,0,0.1,0,0.2,0.1c0,0,0,0.1,0,0.2
		l-3.3,5.7c0,0,0,0.1,0,0.1l3.3,5.7l0,0.1c0,0.1-0.1,0.1-0.2,0.1h-2.2c-0.1,0-0.2,0-0.3-0.1L50.2,34c0-0.1-0.1-0.1-0.1,0l-2.2,3.9
		C47.8,38,47.7,38,47.6,38h-2.2C45.3,38,45.3,38,45.2,37.9z"/>
</g>
</svg>
