<?xml version="1.0" encoding="UTF-8"?>
<svg id="Layer_2" data-name="Layer 2" xmlns="http://www.w3.org/2000/svg" viewBox="0 0 100 100">
  <defs>
    <style>
      .cls-1 {
        fill: #e6e6e6;
      }

      .cls-2 {
        fill-rule: evenodd;
      }
    </style>
  </defs>
  <g id="Layer_1-2" data-name="Layer 1">
    <g>
      <circle class="cls-1" cx="50" cy="50" r="50"/>
      <path class="cls-2" d="m48.95,64.04l-4.43-1.06v-17.82l4.43-.84v19.72Zm30.97-4.2c-3.21.01-5.81-2.58-5.83-5.79v-.03c0-3.16,2.59-5.75,5.82-5.75s5.82,2.59,5.82,5.75c.01,3.21-2.59,5.81-5.79,5.82,0,0-.01,0-.02,0Zm10.04-5.82c0,5.55-4.49,10.04-10.04,10.04s-10.04-4.49-10.04-10.04,4.5-9.96,10.05-9.96,10.03,4.49,10.03,9.96Zm-56.95,8.98l4.35.91v-12c0-5.76-4.49-7.79-7.58-7.79-2.04,0-3.72.49-5.19,1.96-1.55-1.47-3.37-2.04-4.84-2.04-2.18,0-4,.91-5.27,2.45v-2.04l-4.43.84v17.69l4.43.91v-12.13c0-1.96,1.41-3.3,3.57-3.3,2.04,0,3.51,1.33,3.51,3.3v11.23l4.35.91v-12.14c0-1.96,1.47-3.3,3.58-3.3s3.51,1.33,3.51,3.3v11.23Zm33.57-18.94l-2.6.35c-4.84,1.12-8,2.67-8,8v10.59l4.43.84v-10.81c0-2.45,1.41-3.58,3.58-4l2.6-.42v-4.57Zm-21.83-7.31c-1.06,1.08-1.06,2.78,0,3.86,1.08,1.11,2.86,1.12,3.96.04l.04-.04c1.06-1.07,1.06-2.79,0-3.86-1.13-1.06-2.88-1.06-4,0Z"/>
    </g>
  </g>
</svg>