<?xml version="1.0" encoding="UTF-8"?>
<svg id="Layer_2" data-name="Layer 2" xmlns="http://www.w3.org/2000/svg" viewBox="0 0 100 100">
  <defs>
    <style>
      .cls-1 {
        fill: #ed6c5d;
      }

      .cls-2 {
        fill: #fff;
      }
    </style>
  </defs>
  <g id="Layer_1-2" data-name="Layer 1">
    <g>
      <circle class="cls-1" cx="50" cy="50" r="50"/>
      <g id="nav-menu-_v1_" data-name="nav-menu-(v1)">
        <g id="n8">
          <path id="Shape" class="cls-2" d="m81.81,29.58c-3.84,0-7.05,2.62-7.94,6.17h-11.45c-4.48,0-8.15,3.63-8.15,8.15,0,2.24-1.82,4.05-4.05,4.05h-1.65c-.89-3.55-4.14-6.17-7.94-6.17s-7.05,2.62-7.94,6.17h-6.55c-.89-3.55-4.14-6.17-7.94-6.17-4.52,0-8.19,3.67-8.19,8.19s3.67,8.19,8.19,8.19c3.84,0,7.05-2.62,7.94-6.17h6.55c.89,3.55,4.14,6.17,7.94,6.17s7.01-2.58,7.94-6.12h1.65c2.24,0,4.05,1.82,4.05,4.05,0,4.48,3.63,8.15,8.15,8.15h2.66c.89,3.55,4.14,6.17,7.94,6.17,4.52,0,8.19-3.67,8.19-8.19s-3.67-8.19-8.19-8.19c-3.84,0-7.05,2.62-7.94,6.17h-2.66c-2.24,0-4.05-1.82-4.05-4.05,0-2.45-1.1-4.65-2.83-6.12,1.73-1.48,2.83-3.67,2.83-6.12,0-2.24,1.82-4.05,4.05-4.05h11.45c.89,3.55,4.14,6.17,7.94,6.17,4.52,0,8.19-3.67,8.19-8.19.04-4.52-3.67-8.24-8.19-8.24Zm-63.61,24.58c-2.28,0-4.14-1.86-4.14-4.14s1.86-4.14,4.14-4.14,4.14,1.86,4.14,4.14c.04,2.28-1.82,4.14-4.14,4.14Zm22.43,0c-2.28,0-4.14-1.86-4.14-4.14s1.86-4.14,4.14-4.14,4.14,1.86,4.14,4.14c.04,2.28-1.82,4.14-4.14,4.14Zm32.4,3.97c2.28,0,4.14,1.86,4.14,4.14s-1.86,4.14-4.14,4.14-4.14-1.86-4.14-4.14c0-2.28,1.86-4.14,4.14-4.14Zm8.79-16.18c-2.28,0-4.14-1.86-4.14-4.14s1.86-4.14,4.14-4.14,4.14,1.86,4.14,4.14-1.86,4.14-4.14,4.14Z"/>
        </g>
      </g>
    </g>
  </g>
</svg>