<?xml version="1.0" encoding="UTF-8"?>
<svg id="Layer_2" data-name="Layer 2" xmlns="http://www.w3.org/2000/svg" viewBox="0 0 100 100">
  <defs>
    <style>
      .cls-1 {
        fill: #fff;
      }

      .cls-2 {
        fill: #1db9c7;
      }
    </style>
  </defs>
  <g id="Layer_1-2" data-name="Layer 1">
    <g>
      <circle class="cls-2" cx="50" cy="50" r="50"/>
      <path class="cls-1" d="m79.58,48.38l-15.48-27.48c-.58-1.04-1.68-1.68-2.87-1.68h-29.78c-1.1,0-2.12.55-2.73,1.46l-8.14,12.09c-.75,1.11-.75,2.57,0,3.68l7.88,11.7c.75,1.11.75,2.57,0,3.68l-7.88,11.7c-.75,1.11-.75,2.57,0,3.68l8.14,12.09c.61.91,1.64,1.46,2.73,1.46h29.78c1.19,0,2.29-.64,2.87-1.68l15.48-27.48c.57-1,.57-2.23,0-3.24Zm-54.95,17.01l7.47-11.09c1.76-2.61,1.76-5.98,0-8.59l-7.47-11.09,5.5-8.17,11.28,20.48c1.06,1.93,1.06,4.23,0,6.15l-11.28,20.48-5.5-8.17Zm19.51-19.97l-5.09-9.25h15.63l6.4,11.77c.7,1.29.7,2.83,0,4.12l-6.4,11.77h-15.63l5.09-9.25c1.58-2.87,1.58-6.29,0-9.16Zm16.45,30.96h-28.45l5.19-9.43h19.19l7.29-13.4c1.21-2.22,1.21-4.87,0-7.1l-7.29-13.4h-19.19l-5.19-9.43h28.45l14.86,26.38-14.86,26.38Z"/>
    </g>
  </g>
</svg>