<?xml version="1.0" encoding="UTF-8"?>
<svg id="Layer_2" data-name="Layer 2" xmlns="http://www.w3.org/2000/svg" viewBox="0 0 100 100">
  <defs>
    <style>
      .cls-1 {
        fill: #00bd9d;
      }

      .cls-2 {
        fill: #bfe1ff;
      }

      .cls-3 {
        fill: #06ccab;
      }

      .cls-4 {
        fill: #12a892;
      }

      .cls-5 {
        fill: #a2d4ff;
      }

      .cls-6 {
        fill: #95e8c8;
      }

      .cls-7 {
        fill: #39b54a;
      }

      .cls-8 {
        fill: #82d9b6;
      }
    </style>
  </defs>
  <g id="Layer_1-2" data-name="Layer 1">
    <g>
      <circle class="cls-7" cx="50" cy="50" r="50"/>
      <g>
        <g>
          <g>
            <polygon class="cls-6" points="11.92 29.18 11.92 29.19 11.92 29.18 11.92 29.18"/>
            <polygon class="cls-6" points="59.07 29.18 59.08 29.19 59.08 29.18 59.07 29.18"/>
          </g>
          <path class="cls-6" d="m35.5,19.65c-13.02,0-23.58,4.27-23.58,9.54s10.56,9.54,23.58,9.54v-19.07Z"/>
          <path class="cls-8" d="m35.5,38.72c13.02,0,23.58-4.27,23.58-9.54,0-5.27-10.56-9.54-23.58-9.54v19.07Z"/>
          <path class="cls-3" d="m35.5,38.72c-13.02,0-23.58-4.27-23.58-9.54v16.5c0,5.27,10.56,9.54,23.58,9.54v-16.5Z"/>
          <path class="cls-1" d="m35.5,55.22c-13.02,0-23.58-4.27-23.58-9.54v16.5c0,5.27,10.56,9.54,23.58,9.54v-16.5Z"/>
          <path class="cls-1" d="m35.5,38.72c13.02,0,23.58-4.27,23.58-9.54v16.5c0,5.27-10.56,9.54-23.58,9.54v-16.5Z"/>
          <path class="cls-4" d="m35.5,55.22c13.02,0,23.58-4.27,23.58-9.54v16.5c0,5.27-10.56,9.54-23.58,9.54v-16.5Z"/>
        </g>
        <path class="cls-2" d="m79.28,62.05c-.24,0-.48.02-.72.04,0-.01,0-.02,0-.04,0-9.72-7.88-17.6-17.6-17.6-8.74,0-15.98,6.37-17.36,14.71-.97-.3-1.99-.46-3.06-.46-5.78,0-10.47,4.69-10.47,10.47s4.69,10.47,10.47,10.47h38.41c.11,0,.22,0,.33,0,4.86,0,8.8-3.94,8.8-8.8s-3.94-8.8-8.8-8.8Z"/>
        <path class="cls-5" d="m79.28,62.05c-.24,0-.48.02-.72.04,0-.01,0-.02,0-.04,0-9.24-7.12-16.81-16.18-17.54v35.14h16.56c.11,0,.22,0,.33,0,4.86,0,8.8-3.94,8.8-8.8s-3.94-8.8-8.8-8.8Z"/>
      </g>
    </g>
  </g>
</svg>