<?xml version="1.0" encoding="utf-8"?>
<!-- Generator: Adobe Illustrator 27.5.0, SVG Export Plug-In . SVG Version: 6.00 Build 0)  -->
<svg version="1.1" id="Layer_1" xmlns="http://www.w3.org/2000/svg" xmlns:xlink="http://www.w3.org/1999/xlink" x="0px" y="0px"
	 viewBox="0 0 100 100" style="enable-background:new 0 0 100 100;" xml:space="preserve">
<style type="text/css">
	.st0{fill:#74AA9C;}
	.st1{fill:#FFFFFF;}
</style>
<circle class="st0" cx="50" cy="50" r="50"/>
<path class="st1" d="M83,43L83,43c1.7-5.3,1.1-11-1.7-15.7c-4.2-7.3-12.7-11.1-20.9-9.3l0,0c-3.7-4.1-8.9-6.4-14.5-6.4
	c-8.4,0-15.9,5.4-18.5,13.4l0,0c-5.4,1.1-10,4.5-12.8,9.3C10.4,41.6,11.4,50.8,17,57l0,0c-1.7,5.2-1.1,11,1.7,15.7
	c4.2,7.3,12.7,11.1,20.9,9.3l0,0c3.7,4.1,8.9,6.4,14.5,6.4c8.4,0,15.9-5.4,18.5-13.4l0,0c5.4-1.1,10-4.5,12.8-9.3
	C89.6,58.4,88.6,49.2,83,43z M57.6,54.4L50,58.8l-7.6-4.4v-8.8l7.6-4.4l7.6,4.4V54.4z M77,29.7L77,29.7L77,29.7
	c1.7,2.9,2.3,6.3,1.7,9.6l-15.7-9.1c-0.2-0.1-0.4-0.2-0.6-0.2c-0.7-0.2-1.4-0.1-2,0.2l-18,10.4l0-7.6l14.8-8.6
	c1.4-0.8,3-1.4,4.6-1.7l0,0C67.7,21.7,73.8,24.3,77,29.7z M45.9,16.5L45.9,16.5L45.9,16.5c3.4,0,6.6,1.2,9.2,3.3l-15.7,9.1
	c-0.2,0.1-0.3,0.2-0.5,0.4c-0.5,0.5-0.8,1.1-0.8,1.9v20.8l-6.6-3.8l0-17.1c0-1.7,0.3-3.3,0.8-4.8l0,0C34.3,20.5,39.6,16.5,45.9,16.5
	z M19,36.8L19,36.8L19,36.8c1.7-2.9,4.3-5.1,7.5-6.3v18.2c0,0.2,0,0.4,0.1,0.6c0.1,0.7,0.6,1.3,1.2,1.6l18,10.4l-6.6,3.8l-14.9-8.6
	c-1.4-0.8-2.7-1.9-3.8-3.2l0,0C16.6,48.9,15.8,42.2,19,36.8z M23,70.3L23,70.3L23,70.3c-1.7-2.9-2.3-6.3-1.7-9.6l15.7,9.1
	c0.2,0.1,0.4,0.2,0.6,0.2c0.7,0.2,1.4,0.1,2-0.2l18-10.4l0,7.6l-14.8,8.6c-1.4,0.8-3,1.4-4.6,1.7l0,0C32.3,78.3,26.2,75.7,23,70.3z
	 M54.1,83.5L54.1,83.5L54.1,83.5c-3.4,0-6.6-1.2-9.2-3.3l15.7-9.1c0.2-0.1,0.3-0.2,0.5-0.4c0.5-0.5,0.8-1.1,0.8-1.9V48.1l6.6,3.8
	l0,17.1c0,1.7-0.3,3.3-0.8,4.8l0,0C65.7,79.5,60.4,83.5,54.1,83.5z M81,63.2L81,63.2L81,63.2c-1.7,2.9-4.3,5.1-7.5,6.3V51.3
	c0-0.2,0-0.4-0.1-0.6c-0.1-0.7-0.6-1.3-1.2-1.6l-18-10.4l6.6-3.8l14.9,8.6c1.4,0.8,2.7,1.9,3.8,3.2l0,0C83.4,51.1,84.2,57.8,81,63.2
	z"/>
</svg>
