<?xml version="1.0" encoding="UTF-8"?>
<svg id="Layer_2" data-name="Layer 2" xmlns="http://www.w3.org/2000/svg" viewBox="0 0 100 100">
  <defs>
    <style>
      .cls-1 {
        fill: #fff;
      }

      .cls-2 {
        fill: #20a7c9;
      }

      .cls-3 {
        fill: #0071bc;
      }
    </style>
  </defs>
  <g id="Layer_1-2" data-name="Layer 1">
    <g>
      <circle class="cls-3" cx="50" cy="50" r="50"/>
      <g>
        <path class="cls-1" d="m69.58,30c-6.91,0-13.27,3.89-19.42,10.68-6.04-6.9-12.51-10.68-19.74-10.68-11.97,0-20.7,8.54-20.7,20.04s8.73,19.94,20.7,19.94c7.36,0,13.06-3.45,19.42-10.33,6.15,6.9,12.41,10.35,19.74,10.35,11.97-.02,20.7-8.42,20.7-19.96s-8.73-20.04-20.7-20.04Zm-39.08,27.91c-5.07,0-8.09-3.34-8.09-7.76s3.02-7.86,8.09-7.86c4.27,0,7.76,3.44,11.54,8.07-3.57,4.31-7.34,7.55-11.54,7.55Zm38.72,0c-4.21,0-7.76-3.34-11.54-7.76,3.89-4.63,7.23-7.86,11.54-7.86,5.07,0,8.06,3.48,8.06,7.86s-2.99,7.76-8.06,7.76Z"/>
        <path class="cls-2" d="m58.85,67.13l8.05-9.61c-3.2-.96-6.16-3.84-9.23-7.42l-7.84,9.56c2.57,2.98,5.61,5.5,9.01,7.47Z"/>
        <path class="cls-2" d="m50.16,40.67c-2.55-3.02-5.58-5.6-8.96-7.65l-8.06,9.72c3.06,1.07,5.78,3.82,8.66,7.34l.32.22,8.04-9.63Z"/>
      </g>
    </g>
  </g>
</svg>